<svg version="1.1" id="Layer_1" xmlns="http://www.w3.org/2000/svg" xmlns:xlink="http://www.w3.org/1999/xlink" x="0px" y="0px"
	 width="100%" viewBox="0 0 512 512" enable-background="new 0 0 512 512" xml:space="preserve">
<path fill="#000000" opacity="1.000000" stroke="none" 
	d="
M301.000000,513.000000 
	C200.691025,513.000000 100.882042,513.000000 1.036533,513.000000 
	C1.036533,342.399323 1.036533,171.798660 1.036533,1.098988 
	C171.558990,1.098988 342.118042,1.098988 512.838562,1.098988 
	C512.838562,171.666550 512.838562,342.333252 512.838562,513.000000 
	C442.465302,513.000000 371.982635,513.000000 301.000000,513.000000 
M191.895432,320.135559 
	C191.472488,320.823059 190.559387,321.979065 190.700836,322.127045 
	C192.535583,324.046417 194.400055,325.976501 196.488846,327.606873 
	C203.501160,333.080139 210.606949,338.433594 217.832092,343.951385 
	C215.254990,344.166840 212.674179,344.382629 209.336853,344.661652 
	C218.260956,351.171967 227.308304,351.746460 237.100052,350.841431 
	C244.916809,350.118927 252.899200,351.188416 260.808044,351.462463 
	C260.942352,352.142151 261.076691,352.821869 261.210999,353.501556 
	C257.943939,355.282837 254.676926,357.064117 251.461838,358.817078 
	C258.457855,361.830048 271.883636,358.801514 277.006104,351.549561 
	C282.484863,343.793121 291.169495,344.307770 298.049683,340.405243 
	C298.411835,340.748383 298.773987,341.091522 299.136139,341.434662 
	C296.596985,346.290863 294.057831,351.147034 291.326447,356.370880 
	C292.172058,356.071716 292.770599,355.931793 293.302612,355.661194 
	C304.186951,350.124756 309.845154,340.835083 312.885376,329.330688 
	C314.815277,322.027954 320.875000,317.664703 325.816956,312.594971 
	C326.462799,312.766479 327.108673,312.937988 327.754517,313.109497 
	C327.356476,319.031586 326.958405,324.953674 326.512054,331.594391 
	C328.434357,329.119934 330.410034,327.134827 331.726929,324.781158 
	C336.445282,316.347992 337.331970,307.271881 336.544678,297.710968 
	C335.945190,290.430878 336.503357,283.055450 336.553619,274.508850 
	C344.498260,279.879425 346.413696,286.749115 349.050354,293.469574 
	C349.065552,286.576172 348.666656,279.798553 347.445618,273.172455 
	C345.726074,263.841248 338.861359,257.734192 332.867157,250.994827 
	C327.226990,244.653564 322.430267,237.562088 316.850494,230.261658 
	C326.662842,228.762619 332.078247,233.980850 337.921326,239.023727 
	C337.005341,235.525269 335.746368,232.361679 333.979797,229.512894 
	C328.439880,220.579163 318.892151,218.690445 309.772919,216.059341 
	C302.269836,213.894516 294.806427,211.592148 287.325439,209.350739 
	C287.446655,208.677887 287.567871,208.005035 287.689056,207.332184 
	C292.328278,207.332184 296.967468,207.332184 302.408173,207.332184 
	C301.341187,205.914093 301.046204,205.348175 300.596344,204.963150 
	C299.842468,204.317932 299.009338,203.758133 298.175751,203.214203 
	C288.047211,196.604828 277.128601,195.397308 265.623535,198.589432 
	C260.953125,199.885254 256.354828,200.663330 250.549896,198.070816 
	C253.972229,195.702377 256.649597,193.849503 259.326935,191.996628 
	C256.266693,191.930939 253.361450,192.461899 250.693787,193.566589 
	C248.162766,194.614685 245.880569,196.263626 243.488953,197.648346 
	C243.137924,197.227982 242.786896,196.807617 242.435867,196.387253 
	C243.853226,193.982681 245.270569,191.578110 246.728958,189.103928 
	C239.283142,187.055969 237.904266,197.357269 230.085449,196.942657 
	C232.982925,192.131302 235.388718,188.136414 237.882660,183.995163 
	C237.346451,183.897812 236.905518,183.742188 236.470123,183.756363 
	C235.811935,183.777786 235.037338,183.720474 234.519531,184.036423 
	C226.044052,189.207779 219.024857,195.636612 216.972580,205.900253 
	C215.843185,211.548447 214.516113,216.948898 209.345291,220.430969 
	C206.998230,222.011505 204.470795,223.441269 202.492828,225.409393 
	C201.282043,226.614120 200.958694,228.710724 200.177277,230.546616 
	C207.338776,231.212479 210.044861,226.623169 213.869446,223.610123 
	C229.980286,210.917923 248.365128,207.635773 268.480499,210.044479 
	C296.941803,213.452560 326.521576,237.610443 325.930634,273.635864 
	C325.563660,296.006775 315.556000,313.489532 298.308228,327.163605 
	C283.403748,338.979828 266.107666,342.329285 247.886093,339.430817 
	C230.911087,336.730652 217.074356,327.368835 205.092880,315.280548 
	C204.385864,314.567200 204.143799,313.393066 203.685364,312.433350 
	C210.693146,316.075836 216.717163,320.398468 222.865692,324.536102 
	C247.960175,341.423584 283.060333,336.866302 300.664001,316.758636 
	C313.117218,302.534058 318.745270,285.798431 317.303101,266.986725 
	C315.740295,246.601288 306.187378,231.081741 287.935486,221.226364 
	C266.297638,209.542725 244.927277,211.887238 224.038116,222.885590 
	C217.889786,226.122742 212.783035,231.280746 206.917160,235.128891 
	C201.729797,238.531891 201.542007,238.353561 205.638702,243.533188 
	C208.251526,241.793762 211.134018,240.335190 213.451859,238.249222 
	C221.891663,230.653671 231.760132,226.058044 242.870743,224.492538 
	C251.382690,223.293182 260.478485,220.857208 268.507202,222.629288 
	C291.532501,227.711380 304.926971,249.808884 305.348572,269.979156 
	C305.766388,289.970551 297.632080,306.626556 281.554657,318.768463 
	C269.014374,328.239044 254.370758,330.681030 239.815887,325.811646 
	C222.142838,319.899078 208.280106,307.949463 197.997101,292.384552 
	C192.336212,283.815887 191.434891,274.275909 195.296494,263.756409 
	C196.910797,265.918213 198.091675,267.499634 199.272568,269.081055 
	C199.654724,268.955719 200.036880,268.830414 200.419022,268.705078 
	C199.260178,261.460938 198.101334,254.216766 196.704025,245.481979 
	C192.213196,252.019653 188.575943,257.314697 184.554443,263.169128 
	C186.738495,263.046600 188.121384,262.969025 190.223419,262.851074 
	C188.738678,268.158112 187.398376,272.948822 186.058060,277.739532 
	C185.635468,277.699646 185.212860,277.659760 184.790268,277.619873 
	C184.104950,276.104065 183.419647,274.588257 182.734344,273.072449 
	C182.324142,273.189575 181.913940,273.306671 181.503723,273.423798 
	C182.210922,276.536346 182.888672,279.655914 183.631805,282.759857 
	C184.926041,288.165833 186.260574,293.562164 187.727722,299.575287 
	C185.123459,299.220184 183.741760,299.031769 182.360062,298.843384 
	C181.941635,299.202820 181.523209,299.562256 181.104782,299.921692 
	C183.632599,303.130981 186.379837,306.195099 188.626007,309.590698 
	C190.835648,312.931061 192.536942,316.607727 193.427124,320.093201 
	C193.117386,320.245178 192.807632,320.397156 191.895432,320.135559 
z"/>
<path fill="#F3F3F3" opacity="1.000000" stroke="none" 
	d="
M194.461288,320.136810 
	C192.536942,316.607727 190.835648,312.931061 188.626007,309.590698 
	C186.379837,306.195099 183.632599,303.130981 181.104782,299.921692 
	C181.523209,299.562256 181.941635,299.202820 182.360062,298.843384 
	C183.741760,299.031769 185.123459,299.220184 187.727722,299.575287 
	C186.260574,293.562164 184.926041,288.165833 183.631805,282.759857 
	C182.888672,279.655914 182.210922,276.536346 181.503723,273.423798 
	C181.913940,273.306671 182.324142,273.189575 182.734344,273.072449 
	C183.419647,274.588257 184.104950,276.104065 184.790268,277.619873 
	C185.212860,277.659760 185.635468,277.699646 186.058060,277.739532 
	C187.398376,272.948822 188.738678,268.158112 190.223419,262.851074 
	C188.121384,262.969025 186.738495,263.046600 184.554443,263.169128 
	C188.575943,257.314697 192.213196,252.019653 196.704025,245.481979 
	C198.101334,254.216766 199.260178,261.460938 200.419022,268.705078 
	C200.036880,268.830414 199.654724,268.955719 199.272568,269.081055 
	C198.091675,267.499634 196.910797,265.918213 195.296494,263.756409 
	C191.434891,274.275909 192.336212,283.815887 197.997101,292.384552 
	C208.280106,307.949463 222.142838,319.899078 239.815887,325.811646 
	C254.370758,330.681030 269.014374,328.239044 281.554657,318.768463 
	C297.632080,306.626556 305.766388,289.970551 305.348572,269.979156 
	C304.926971,249.808884 291.532501,227.711380 268.507202,222.629288 
	C260.478485,220.857208 251.382690,223.293182 242.870743,224.492538 
	C231.760132,226.058044 221.891663,230.653671 213.451859,238.249222 
	C211.134018,240.335190 208.251526,241.793762 205.638702,243.533188 
	C201.542007,238.353561 201.729797,238.531891 206.917160,235.128891 
	C212.783035,231.280746 217.889786,226.122742 224.038116,222.885590 
	C244.927277,211.887238 266.297638,209.542725 287.935486,221.226364 
	C306.187378,231.081741 315.740295,246.601288 317.303101,266.986725 
	C318.745270,285.798431 313.117218,302.534058 300.664001,316.758636 
	C283.060333,336.866302 247.960175,341.423584 222.865692,324.536102 
	C216.717163,320.398468 210.693146,316.075836 203.685364,312.433350 
	C204.143799,313.393066 204.385864,314.567200 205.092880,315.280548 
	C217.074356,327.368835 230.911087,336.730652 247.886093,339.430817 
	C266.107666,342.329285 283.403748,338.979828 298.308228,327.163605 
	C315.556000,313.489532 325.563660,296.006775 325.930634,273.635864 
	C326.521576,237.610443 296.941803,213.452560 268.480499,210.044479 
	C248.365128,207.635773 229.980286,210.917923 213.869446,223.610123 
	C210.044861,226.623169 207.338776,231.212479 200.177277,230.546616 
	C200.958694,228.710724 201.282043,226.614120 202.492828,225.409393 
	C204.470795,223.441269 206.998230,222.011505 209.345291,220.430969 
	C214.516113,216.948898 215.843185,211.548447 216.972580,205.900253 
	C219.024857,195.636612 226.044052,189.207779 234.519531,184.036423 
	C235.037338,183.720474 235.811935,183.777786 236.470123,183.756363 
	C236.905518,183.742188 237.346451,183.897812 237.882660,183.995163 
	C235.388718,188.136414 232.982925,192.131302 230.085449,196.942657 
	C237.904266,197.357269 239.283142,187.055969 246.728958,189.103928 
	C245.270569,191.578110 243.853226,193.982681 242.435867,196.387253 
	C242.786896,196.807617 243.137924,197.227982 243.488953,197.648346 
	C245.880569,196.263626 248.162766,194.614685 250.693787,193.566589 
	C253.361450,192.461899 256.266693,191.930939 259.326935,191.996628 
	C256.649597,193.849503 253.972229,195.702377 250.549896,198.070816 
	C256.354828,200.663330 260.953125,199.885254 265.623535,198.589432 
	C277.128601,195.397308 288.047211,196.604828 298.175751,203.214203 
	C299.009338,203.758133 299.842468,204.317932 300.596344,204.963150 
	C301.046204,205.348175 301.341187,205.914093 302.408173,207.332184 
	C296.967468,207.332184 292.328278,207.332184 287.689056,207.332184 
	C287.567871,208.005035 287.446655,208.677887 287.325439,209.350739 
	C294.806427,211.592148 302.269836,213.894516 309.772919,216.059341 
	C318.892151,218.690445 328.439880,220.579163 333.979797,229.512894 
	C335.746368,232.361679 337.005341,235.525269 337.921326,239.023727 
	C332.078247,233.980850 326.662842,228.762619 316.850494,230.261658 
	C322.430267,237.562088 327.226990,244.653564 332.867157,250.994827 
	C338.861359,257.734192 345.726074,263.841248 347.445618,273.172455 
	C348.666656,279.798553 349.065552,286.576172 349.050354,293.469574 
	C346.413696,286.749115 344.498260,279.879425 336.553619,274.508850 
	C336.503357,283.055450 335.945190,290.430878 336.544678,297.710968 
	C337.331970,307.271881 336.445282,316.347992 331.726929,324.781158 
	C330.410034,327.134827 328.434357,329.119934 326.512054,331.594391 
	C326.958405,324.953674 327.356476,319.031586 327.754517,313.109497 
	C327.108673,312.937988 326.462799,312.766479 325.816956,312.594971 
	C320.875000,317.664703 314.815277,322.027954 312.885376,329.330688 
	C309.845154,340.835083 304.186951,350.124756 293.302612,355.661194 
	C292.770599,355.931793 292.172058,356.071716 291.326447,356.370880 
	C294.057831,351.147034 296.596985,346.290863 299.136139,341.434662 
	C298.773987,341.091522 298.411835,340.748383 298.049683,340.405243 
	C291.169495,344.307770 282.484863,343.793121 277.006104,351.549561 
	C271.883636,358.801514 258.457855,361.830048 251.461838,358.817078 
	C254.676926,357.064117 257.943939,355.282837 261.210999,353.501556 
	C261.076691,352.821869 260.942352,352.142151 260.808044,351.462463 
	C252.899200,351.188416 244.916809,350.118927 237.100052,350.841431 
	C227.308304,351.746460 218.260956,351.171967 209.336853,344.661652 
	C212.674179,344.382629 215.254990,344.166840 217.832092,343.951385 
	C210.606949,338.433594 203.501160,333.080139 196.488846,327.606873 
	C194.400055,325.976501 192.535583,324.046417 190.700836,322.127045 
	C190.559387,321.979065 191.472488,320.823059 192.418976,320.500305 
	C193.448776,320.622314 193.955032,320.379547 194.461288,320.136810 
z"/>
<path fill="#000000" opacity="1.000000" stroke="none" 
	d="
M193.944214,320.114990 
	C193.955032,320.379547 193.448776,320.622314 192.720215,320.707092 
	C192.807632,320.397156 193.117386,320.245178 193.944214,320.114990 
z"/>
</svg>